<svg id="Group_4545" data-name="Group 4545" xmlns="http://www.w3.org/2000/svg" width="32" height="32" viewBox="0 0 32 32">
  <path id="Path_6058" data-name="Path 6058" d="M0,0H32V32H0Z" fill="none"/>
  <path id="Path_6059" data-name="Path 6059" d="M5.667,8H7A2.667,2.667,0,0,0,9.667,5.333,1.333,1.333,0,0,1,11,4h8a1.333,1.333,0,0,1,1.333,1.333A2.667,2.667,0,0,0,23,8h1.333A2.667,2.667,0,0,1,27,10.667v12a2.667,2.667,0,0,1-2.667,2.667H5.667A2.667,2.667,0,0,1,3,22.667v-12A2.667,2.667,0,0,1,5.667,8" transform="translate(1 1.333)" fill="none" stroke="#00618f" stroke-linecap="round" stroke-linejoin="round" stroke-width="1.5"/>
  <circle id="Ellipse_29" data-name="Ellipse 29" cx="4" cy="4" r="4" transform="translate(12 13.333)" fill="none" stroke="#00618f" stroke-linecap="round" stroke-linejoin="round" stroke-width="1.5"/>
</svg>
