<svg xmlns="http://www.w3.org/2000/svg" width="24.39" height="22.867" viewBox="0 0 24.39 22.867">
  <g id="cart" transform="translate(0)">
    <g id="Group_18" data-name="Group 18" transform="translate(7.622 18.293)">
      <g id="Group_17" data-name="Group 17" transform="translate(0 0)">
        <path id="Path_1" data-name="Path 1" d="M2.287,0A2.287,2.287,0,1,0,4.573,2.287,2.289,2.289,0,0,0,2.287,0Zm0,3.049a.762.762,0,1,1,.762-.762A.763.763,0,0,1,2.287,3.049Z" fill="#fff"/>
      </g>
    </g>
    <g id="Group_20" data-name="Group 20" transform="translate(16.769 18.293)">
      <g id="Group_19" data-name="Group 19" transform="translate(0 0)">
        <path id="Path_2" data-name="Path 2" d="M2.287,0A2.287,2.287,0,1,0,4.573,2.287,2.289,2.289,0,0,0,2.287,0Zm0,3.049a.762.762,0,1,1,.762-.762A.763.763,0,0,1,2.287,3.049Z" fill="#fff"/>
      </g>
    </g>
    <g id="Group_22" data-name="Group 22" transform="translate(0 0)">
      <g id="Group_21" data-name="Group 21" transform="translate(0 0)">
        <path id="Path_3" data-name="Path 3" d="M24.213,3.323a.757.757,0,0,0-.584-.274H5.714L5.05.566A.76.76,0,0,0,4.314,0H.762a.762.762,0,1,0,0,1.524H3.729L7.648,16.2a.76.76,0,0,0,.736.566h12.2a.762.762,0,0,0,0-1.524H8.97l-.447-1.674,13.615-.613a.762.762,0,0,0,.715-.625l1.524-8.384A.76.76,0,0,0,24.213,3.323Zm-2.749,8.139-13.345.6-2-7.49h16.6Z" fill="#fff"/>
      </g>
    </g>
    <g id="Group_24" data-name="Group 24" transform="translate(18.293 6.098)">
      <g id="Group_23" data-name="Group 23" transform="translate(0 0)">
        <path id="Path_4" data-name="Path 4" d="M.762,0A.762.762,0,0,0,0,.762V3.811a.762.762,0,0,0,1.524,0V.762A.763.763,0,0,0,.762,0Z" fill="#fff"/>
      </g>
    </g>
    <g id="Group_26" data-name="Group 26" transform="translate(13.72 6.098)">
      <g id="Group_25" data-name="Group 25" transform="translate(0 0)">
        <path id="Path_5" data-name="Path 5" d="M.762,0A.762.762,0,0,0,0,.762V3.811a.762.762,0,1,0,1.524,0V.762A.762.762,0,0,0,.762,0Z" fill="#fff"/>
      </g>
    </g>
    <g id="Group_28" data-name="Group 28" transform="translate(9.147 6.098)">
      <g id="Group_27" data-name="Group 27" transform="translate(0 0)">
        <path id="Path_6" data-name="Path 6" d="M.762,0A.762.762,0,0,0,0,.762V3.811a.762.762,0,1,0,1.524,0V.762A.762.762,0,0,0,.762,0Z" fill="#fff"/>
      </g>
    </g>
  </g>
</svg>
