<svg xmlns="http://www.w3.org/2000/svg" width="72.393" height="56.5" viewBox="0 0 72.393 56.5">
  <defs>
    <style>
      .cls-1 {
        fill: #32283c;
      }

      .cls-2 {
        fill: #463c4b;
      }

      .cls-3 {
        fill: #e6e6eb;
      }

      .cls-4 {
        fill: #a5c3dc;
      }

      .cls-5 {
        fill: #ff4646;
      }

      .cls-6 {
        fill: #cd3232;
      }

      .cls-7 {
        fill: #f0915a;
      }

      .cls-8 {
        fill: #fab991;
      }
    </style>
  </defs>
  <g id="DeliveryBike" transform="translate(-20 -72)">
    <g id="Group_51" data-name="Group 51" transform="translate(76.442 76.908)">
      <path id="Path_15" data-name="Path 15" class="cls-1" d="M395.362,108.908h-4.908a2.454,2.454,0,0,1,0-4.908h4.908a2.454,2.454,0,1,1,0,4.908Z" transform="translate(-388 -104)"/>
    </g>
    <g id="Group_52" data-name="Group 52" transform="translate(62.945 103.902)">
      <path id="Path_16" data-name="Path 16" class="cls-1" d="M317.178,280H312.27a12.27,12.27,0,0,0,0,24.54h4.908a12.27,12.27,0,1,0,0-24.54Z" transform="translate(-300 -280)"/>
    </g>
    <g id="Group_53" data-name="Group 53" transform="translate(63.157 103.918)">
      <ellipse id="Ellipse_5" data-name="Ellipse 5" class="cls-2" cx="12" cy="12.5" rx="12" ry="12.5" transform="translate(-0.157 -0.418)"/>
    </g>
    <g id="Group_54" data-name="Group 54" transform="translate(69.451 110.212)">
      <ellipse id="Ellipse_6" data-name="Ellipse 6" class="cls-3" cx="6" cy="5.5" rx="6" ry="5.5" transform="translate(-0.451 0.288)"/>
    </g>
    <g id="Group_55" data-name="Group 55" transform="translate(73.047 113.809)">
      <ellipse id="Ellipse_7" data-name="Ellipse 7" class="cls-4" cx="2.5" cy="3" rx="2.5" ry="3" transform="translate(-0.047 -0.309)"/>
    </g>
    <g id="Group_56" data-name="Group 56" transform="translate(24.908 103.902)">
      <path id="Path_17" data-name="Path 17" class="cls-1" d="M69.178,280H64.27a12.27,12.27,0,1,0,0,24.54h4.908a12.27,12.27,0,1,0,0-24.54Z" transform="translate(-52 -280)"/>
    </g>
    <g id="Group_57" data-name="Group 57" transform="translate(25.395 103.918)">
      <circle id="Ellipse_8" data-name="Ellipse 8" class="cls-2" cx="12.5" cy="12.5" r="12.5" transform="translate(-0.395 -0.418)"/>
    </g>
    <g id="Group_58" data-name="Group 58" transform="translate(30.789 110.212)">
      <ellipse id="Ellipse_9" data-name="Ellipse 9" class="cls-3" cx="6" cy="5.5" rx="6" ry="5.5" transform="translate(0.211 0.288)"/>
    </g>
    <g id="Group_59" data-name="Group 59" transform="translate(34.386 113.809)">
      <circle id="Ellipse_10" data-name="Ellipse 10" class="cls-4" cx="3" cy="3" r="3" transform="translate(-0.386 -0.309)"/>
    </g>
    <g id="Group_60" data-name="Group 60" transform="translate(69.08 74.454)">
      <path id="Path_18" data-name="Path 18" class="cls-5" d="M344.908,97.816h4.908a4.908,4.908,0,0,0,0-9.816h-4.908a4.908,4.908,0,0,0,0,9.816Z" transform="translate(-340 -88)"/>
    </g>
    <g id="Group_61" data-name="Group 61" transform="translate(69.08 79.362)">
      <path id="Path_19" data-name="Path 19" class="cls-6" d="M344.908,124.908h4.908A4.908,4.908,0,0,0,354.724,120H340A4.908,4.908,0,0,0,344.908,124.908Z" transform="translate(-340 -120)"/>
    </g>
    <g id="Group_62" data-name="Group 62" transform="translate(22.454 72)">
      <path id="Path_20" data-name="Path 20" class="cls-7" d="M65.448,94.086H38.454A2.454,2.454,0,0,1,36,91.632V74.454A2.454,2.454,0,0,1,38.454,72H65.448A2.454,2.454,0,0,1,67.9,74.454V91.632A2.454,2.454,0,0,1,65.448,94.086Z" transform="translate(-36 -72)"/>
    </g>
    <g id="Group_63" data-name="Group 63" transform="translate(22.454 72)">
      <path id="Path_21" data-name="Path 21" class="cls-8" d="M53.178,94.086H38.454A2.454,2.454,0,0,1,36,91.632V74.454A2.454,2.454,0,0,1,38.454,72H53.178a2.454,2.454,0,0,1,2.454,2.454V91.632A2.454,2.454,0,0,1,53.178,94.086Z" transform="translate(-36 -72)"/>
    </g>
    <g id="Group_64" data-name="Group 64" transform="translate(46.994 94.086)">
      <path id="Path_22" data-name="Path 22" class="cls-6" d="M213.178,216a9.816,9.816,0,1,0,0,19.632h-7.362a9.816,9.816,0,1,1,0-19.632Z" transform="translate(-196 -216)"/>
    </g>
    <g id="Group_65" data-name="Group 65" transform="translate(20 84.27)">
      <path id="Path_23" data-name="Path 23" class="cls-5" d="M66.626,171.632a9.816,9.816,0,1,1-9.816-9.816H29.816A9.816,9.816,0,0,0,20,171.632v9.816a2.454,2.454,0,0,0,2.454,2.454H56.81a12.27,12.27,0,0,0,12.27-12.27v-12.27A7.362,7.362,0,0,1,76.442,152H73.988a7.362,7.362,0,0,0-7.362,7.362Z" transform="translate(-20 -152)"/>
    </g>
    <g id="Group_66" data-name="Group 66" transform="translate(56.81 84.27)">
      <path id="Path_24" data-name="Path 24" class="cls-6" d="M260,183.9h17.178a12.27,12.27,0,0,0,12.27-12.27v-12.27A7.362,7.362,0,0,0,282.086,152h-2.454a7.362,7.362,0,0,0-7.362,7.362v12.27A12.27,12.27,0,0,1,260,183.9Z" transform="translate(-260 -152)"/>
    </g>
    <g id="Group_68" data-name="Group 68" transform="translate(29.816 94.086)">
      <g id="Group_67" data-name="Group 67" transform="translate(0 0)">
        <path id="Path_25" data-name="Path 25" class="cls-6" d="M88.908,216H84a9.816,9.816,0,0,1,9.816,9.816v9.816a2.454,2.454,0,0,1-2.454,2.454H96.27a2.454,2.454,0,0,0,2.454-2.454v-9.816A9.816,9.816,0,0,0,88.908,216Z" transform="translate(-84 -216)"/>
      </g>
    </g>
    <g id="Group_71" data-name="Group 71" transform="translate(46.994 86.724)">
      <g id="Group_69" data-name="Group 69">
        <path id="Path_26" data-name="Path 26" class="cls-1" d="M197.227,175.362H214.4a1.227,1.227,0,0,0,1.227-1.227A6.135,6.135,0,0,0,209.5,168h-12.27A1.227,1.227,0,0,0,196,169.227v4.908A1.227,1.227,0,0,0,197.227,175.362Z" transform="translate(-196 -168)"/>
      </g>
      <g id="Group_70" data-name="Group 70">
        <path id="Path_27" data-name="Path 27" class="cls-2" d="M197.227,175.362h9.816a1.227,1.227,0,0,0,1.227-1.227A6.135,6.135,0,0,0,202.135,168h-4.908A1.227,1.227,0,0,0,196,169.227v4.908A1.227,1.227,0,0,0,197.227,175.362Z" transform="translate(-196 -168)"/>
      </g>
    </g>
    <g id="Group_72" data-name="Group 72" transform="translate(62.945 103.902)">
      <path id="Path_28" data-name="Path 28" class="cls-6" d="M312.27,280h4.908a12.27,12.27,0,0,1,12.27,12.27H300A12.27,12.27,0,0,0,312.27,280Z" transform="translate(-300 -280)"/>
    </g>
    <g id="Group_73" data-name="Group 73" transform="translate(62.945 103.902)">
      <path id="Path_29" data-name="Path 29" class="cls-5" d="M300,292.27A12.27,12.27,0,0,0,312.27,280a12.27,12.27,0,0,1,12.27,12.27Z" transform="translate(-300 -280)"/>
    </g>
    <g id="Group_74" data-name="Group 74" transform="translate(73.947 74.248)">
      <circle id="Ellipse_11" data-name="Ellipse 11" class="cls-4" cx="5" cy="5" r="5" transform="translate(0.053 0.252)"/>
    </g>
    <g id="Group_75" data-name="Group 75" transform="translate(75.624 76.09)">
      <circle id="Ellipse_12" data-name="Ellipse 12" class="cls-3" cx="3.272" cy="3.272" r="3.272"/>
    </g>
    <g id="Group_76" data-name="Group 76" transform="translate(61.718 76.908)">
      <path id="Path_30" data-name="Path 30" class="cls-1" d="M299.362,108.908h-4.908a2.454,2.454,0,1,1,0-4.908h4.908a2.454,2.454,0,1,1,0,4.908Z" transform="translate(-292 -104)"/>
    </g>
    <g id="Group_77" data-name="Group 77" transform="translate(62.258 76.945)">
      <ellipse id="Ellipse_13" data-name="Ellipse 13" class="cls-2" cx="2.5" cy="3" rx="2.5" ry="3" transform="translate(-0.258 -0.445)"/>
    </g>
    <g id="Group_81" data-name="Group 81" transform="translate(24.908 103.902)">
      <g id="Group_78" data-name="Group 78" transform="translate(0 7.362)">
        <path id="Path_31" data-name="Path 31" class="cls-2" d="M61.2,328H52.613a.613.613,0,0,0,0,1.227H61.2a.613.613,0,0,0,0-1.227Z" transform="translate(-52 -328)"/>
      </g>
      <g id="Group_79" data-name="Group 79" transform="translate(0 3.681)">
        <path id="Path_32" data-name="Path 32" class="cls-2" d="M61.2,304H52.613a.613.613,0,0,0,0,1.227H61.2a.613.613,0,0,0,0-1.227Z" transform="translate(-52 -304)"/>
      </g>
      <g id="Group_80" data-name="Group 80" transform="translate(0 0)">
        <path id="Path_33" data-name="Path 33" class="cls-2" d="M61.2,280H52.613a.613.613,0,1,0,0,1.227H61.2a.613.613,0,1,0,0-1.227Z" transform="translate(-52 -280)"/>
      </g>
    </g>
    <g id="Group_85" data-name="Group 85" transform="translate(75.215 94.086)">
      <g id="Group_82" data-name="Group 82" transform="translate(0 4.908)">
        <path id="Path_34" data-name="Path 34" class="cls-1" d="M384.294,248h-3.681a.613.613,0,0,0,0,1.227h3.681a.613.613,0,1,0,0-1.227Z" transform="translate(-380 -248)"/>
      </g>
      <g id="Group_83" data-name="Group 83" transform="translate(0 2.454)">
        <path id="Path_35" data-name="Path 35" class="cls-1" d="M384.294,232h-3.681a.614.614,0,0,0,0,1.227h3.681a.614.614,0,0,0,0-1.227Z" transform="translate(-380 -232)"/>
      </g>
      <g id="Group_84" data-name="Group 84" transform="translate(0 0)">
        <path id="Path_36" data-name="Path 36" class="cls-1" d="M384.294,216h-3.681a.614.614,0,0,0,0,1.227h3.681a.614.614,0,0,0,0-1.227Z" transform="translate(-380 -216)"/>
      </g>
    </g>
    <g id="Group_86" data-name="Group 86" transform="translate(29.816 72)">
      <path id="Path_37" data-name="Path 37" class="cls-3" d="M87.681,75.681H85.227A1.227,1.227,0,0,1,84,74.454V72h4.908v2.454A1.227,1.227,0,0,1,87.681,75.681Z" transform="translate(-84 -72)"/>
    </g>
    <g id="Group_87" data-name="Group 87" transform="translate(32.27 86.724)">
      <path id="Path_38" data-name="Path 38" class="cls-7" d="M101.227,172.908h4.908a1.227,1.227,0,0,0,1.227-1.227v-2.454A1.227,1.227,0,0,0,106.135,168h-4.908A1.227,1.227,0,0,0,100,169.227v2.454A1.227,1.227,0,0,0,101.227,172.908Z" transform="translate(-100 -168)"/>
    </g>
  </g>
</svg>
