<svg id="Group_4470" data-name="Group 4470" xmlns="http://www.w3.org/2000/svg" width="10.286" height="18" viewBox="0 0 10.286 18">
  <path id="Path_6028" data-name="Path 6028" d="M142.429,68.714h-2.571a1.286,1.286,0,1,1,0-2.571h2.571a1.287,1.287,0,0,1,1.286,1.286h2.571a3.861,3.861,0,0,0-3.857-3.857V61h-2.571v2.571a3.857,3.857,0,1,0,0,7.714h2.571a1.286,1.286,0,0,1,0,2.571h-2.571a1.287,1.287,0,0,1-1.286-1.286H136a3.861,3.861,0,0,0,3.857,3.857V79h2.571V76.429a3.857,3.857,0,1,0,0-7.714Z" transform="translate(-136 -61)" fill="#707070"/>
</svg>
