<svg xmlns="http://www.w3.org/2000/svg" width="20.805" height="24.462" viewBox="0 0 27.805 29.462">
  <g id="Group_35" data-name="Group 35" transform="translate(-44.195 -36)">
    <g id="NavbarNotifiaction" transform="translate(41.058 40.001)">
      <g id="Group_33" data-name="Group 33" transform="translate(3.137 -0.001)">
        <path id="Path_7" data-name="Path 7" d="M28.233,17.857a2.718,2.718,0,0,0-.107-.439,2.792,2.792,0,0,0-3.1-1.808.809.809,0,0,1-.925-.673l-.671-4.3A9.368,9.368,0,0,0,16.719,3.03a3.612,3.612,0,0,0-7.14,1.1,9.039,9.039,0,0,0-4.094,9.051L6.2,17.751a.815.815,0,0,1-.673.925,2.793,2.793,0,0,0-2.393,2.672,2.718,2.718,0,0,0,2.69,2.746h.028a2.787,2.787,0,0,0,.423-.033l2.789-.439a3.594,3.594,0,0,0,6.659-1.047l10.243-1.612A2.718,2.718,0,0,0,28.233,17.857ZM12.886,1.927a1.9,1.9,0,0,1,.285-.023,1.821,1.821,0,0,1,1.509.815h-.043a8.636,8.636,0,0,0-1.013.029,9.2,9.2,0,0,0-1.056.163c-.075.015-.149.037-.224.055-.285.067-.565.146-.84.239-.027.008-.055.013-.082.023A1.812,1.812,0,0,1,12.886,1.927ZM12.2,23.649a1.787,1.787,0,0,1-1.066-.352l2.537-.4A1.812,1.812,0,0,1,12.2,23.649Zm14.122-4.9a.906.906,0,0,1-.634.424L14.773,20.89l-5.3.834L6,22.268a.9.9,0,0,1-.732-.208.906.906,0,0,1-.318-.7.983.983,0,0,1,.863-.893,2.627,2.627,0,0,0,2.181-3L7.274,12.9A7.267,7.267,0,0,1,10.94,5.417l.046-.018a7.248,7.248,0,0,1,2.8-.846,6.543,6.543,0,0,1,.9-.017l.149.007a7.125,7.125,0,0,1,.92.116h.029a7.529,7.529,0,0,1,5.857,6.261l.676,4.3a2.621,2.621,0,0,0,3,2.183.983.983,0,0,1,1.095.583A.906.906,0,0,1,26.32,18.75Z" transform="translate(-3.137 0.001)" fill="#f85252"/>
      </g>
    </g>
  </g>
</svg>
