<svg xmlns="http://www.w3.org/2000/svg" width="84" height="84" viewBox="0 0 84 84">
  <g id="Group_4524" data-name="Group 4524" transform="translate(-152 -124)">
    <g id="Group_4471" data-name="Group 4471" transform="translate(-89.312 -101.311)" opacity="0.35">
      <g id="Group_3792" data-name="Group 3792" transform="translate(241.312 225.311)">
        <rect id="Rectangle_88" data-name="Rectangle 88" width="84" height="84" rx="10" transform="translate(0 0)" fill="#707070" opacity="0"/>
      </g>
    </g>
    <g id="Page-1" transform="translate(162 134)">
      <g id="_027---Product-Marketing" data-name="027---Product-Marketing">
        <path id="Shape" d="M46.933,29.867V10.47a3.2,3.2,0,0,0,2.133-3V3.2a3.2,3.2,0,0,0-3.2-3.2H3.2A3.2,3.2,0,0,0,0,3.2V7.467a3.2,3.2,0,0,0,2.133,3V41.6a5.34,5.34,0,0,0,5.333,5.333h22.4A17.067,17.067,0,1,0,46.933,29.867ZM2.133,3.2A1.067,1.067,0,0,1,3.2,2.133H45.867A1.067,1.067,0,0,1,46.933,3.2V7.467a1.067,1.067,0,0,1-1.067,1.067H3.2A1.067,1.067,0,0,1,2.133,7.467ZM7.467,44.8a3.2,3.2,0,0,1-3.2-3.2V10.667H44.8V30.015A17.083,17.083,0,0,0,30.015,44.8ZM46.933,61.867A14.933,14.933,0,1,1,61.867,46.933,14.933,14.933,0,0,1,46.933,61.867Z" fill="#2d2d2d"/>
        <path id="Shape-2" data-name="Shape" d="M8.707,30.707,9,30.414V34a1,1,0,0,0,2,0V30.414l.293.293a1,1,0,0,0,1.414-1.414l-2-2a1,1,0,0,0-1.414,0l-2,2a1,1,0,1,0,1.414,1.414Z" transform="translate(0 2.077)"/>
        <path id="Shape-3" data-name="Shape" d="M18.707,27.293a1,1,0,0,0-1.414,0l-2,2a1,1,0,0,0,1.414,1.414L17,30.414V34a1,1,0,0,0,2,0V30.414l.293.293a1,1,0,0,0,1.414-1.414Z" transform="translate(1.112 2.077)"/>
        <path id="Shape-4" data-name="Shape" d="M34,16a4,4,0,0,0-4-4H16a4,4,0,0,0,0,8H30A4,4,0,0,0,34,16Zm-4,2H16a2,2,0,0,1,0-4H30a2,2,0,0,1,0,4Z" transform="translate(1.263 0.923)"/>
        <path id="Shape-5" data-name="Shape" d="M19,37H9a1,1,0,0,0,0,2H19a1,1,0,0,0,0-2Z" transform="translate(0 2.552)"/>
        <path id="Union_2" data-name="Union 2" d="M-4079-1068v-12a1,1,0,0,1,1-1,1,1,0,0,1,1,1v12a1,1,0,0,1-1,1A1,1,0,0,1-4079-1068Zm-8,0v-12a1,1,0,0,1,1-1,1,1,0,0,1,1,1v12a1,1,0,0,1-1,1A1,1,0,0,1-4087-1068Zm4-4v-8a1,1,0,0,1,1-1,1,1,0,0,1,1,1v8a1,1,0,0,1-1,1A1,1,0,0,1-4083-1072Zm-8,0v-8a1,1,0,0,1,1-1,1,1,0,0,1,1,1v8a1,1,0,0,1-1,1A1,1,0,0,1-4091-1072Z" transform="translate(4131 1121)" fill="#2d2d2d"/>
      </g>
    </g>
  </g>
</svg>
