<svg xmlns="http://www.w3.org/2000/svg" width="17" height="18" viewBox="0 0 17 18">
  <g id="Group_4773" data-name="Group 4773" transform="translate(-306.5 -455.5)">
    <path id="Path_6142" data-name="Path 6142" d="M3,3H4.778l.356,1.778m1.422,7.111h8.889L19,4.778l-3.556,7.111H6.556L5.133,4.778m1.422,7.111L5.133,4.778m1.422,7.111L4.517,13.927a.889.889,0,0,0,.628,1.517h10.3m0,0a1.778,1.778,0,1,0,1.778,1.778A1.778,1.778,0,0,0,15.444,15.444ZM8.333,17.222a1.778,1.778,0,1,1-1.778-1.778A1.778,1.778,0,0,1,8.333,17.222Z" transform="translate(304 454)" fill="none" stroke="#fff" stroke-linecap="round" stroke-linejoin="round" stroke-width="1"/>
    <path id="Path_6143" data-name="Path 6143" d="M9,6V9M9,9v3M9,9h3M9,9H6" transform="translate(306 450)" fill="none" stroke="#fff" stroke-linecap="round" stroke-linejoin="round" stroke-width="1"/>
  </g>
</svg>
